<?xml version="1.0" encoding="UTF-8"?>
<svg width="258px" height="109px" viewBox="0 0 258 109" version="1.1" xmlns="http://www.w3.org/2000/svg" xmlns:xlink="http://www.w3.org/1999/xlink">
    <!-- Generator: Sketch 43.2 (39069) - http://www.bohemiancoding.com/sketch -->
    <title>Artboard</title>
    <desc>Created with Sketch.</desc>
    <defs></defs>
    <g id="Page-1" stroke="none" stroke-width="1" fill="none" fill-rule="evenodd">
        <g id="Artboard" fill="#FFFFFF">
            <path d="M171.682424,64.8662198 C170.299424,65.9372198 169.087424,66.8942198 167.855424,67.8262198 C164.691424,70.2222198 161.141424,71.6242198 157.159424,71.7462198 C153.418424,71.8602198 150.805424,69.7112198 150.051424,65.9782198 C148.763424,67.1022198 147.513424,68.2042198 146.251424,69.2912198 C144.206424,71.0532198 141.733424,72.0442198 139.184424,72.6132198 C135.111424,73.5212198 132.650424,71.5562198 132.040424,67.1882198 C129.715424,69.2202198 127.194424,70.8782198 124.433424,72.1302198 C122.218424,73.1342198 119.807424,73.2222198 117.498424,72.8102198 C114.227424,72.2272198 113.037424,69.9882198 113.787424,66.6012198 C114.792424,62.0682198 117.053424,58.1632198 119.777424,54.4852198 C120.798424,53.1072198 121.802424,51.7142198 122.878424,50.3802198 C123.513424,49.5932198 123.360424,49.0342198 122.617424,48.4892198 C122.263424,48.2292198 121.924424,47.9482198 121.583424,47.6722198 C119.716424,46.1632198 119.775424,45.7292198 117.919424,48.2602198 C115.487424,51.5762198 113.090424,54.9182198 110.557424,58.1592198 C107.726424,61.7832198 104.817424,65.3562198 101.365424,68.4032198 C99.1034238,70.3992198 96.8044238,72.4172198 93.9964238,73.6732198 C91.9544238,74.5852198 89.8254238,74.9802198 87.5904238,74.5762198 C85.4764238,74.1942198 84.0164238,73.0832198 83.5034238,70.9152198 C83.4294238,70.6052198 83.3734238,70.2892198 83.2774238,69.9862198 C82.8544238,68.6492198 82.2444238,68.4462198 81.0904238,69.2592198 C79.1664238,70.6132198 77.2514238,71.9792198 75.3204238,73.3242198 C74.8974238,73.6182198 74.4434238,73.8842198 73.9724238,74.0932198 C70.0094238,75.8582198 66.4524238,73.6942198 66.1714238,69.3632198 C65.9584238,66.0932198 67.3964238,63.2472198 68.4344238,60.2842198 C70.1094238,55.5072198 72.8474238,51.3792198 75.9614238,47.4572198 C76.2554238,47.0872198 76.4724238,46.6532198 76.7094238,46.2392198 C77.4654238,44.9192198 79.0484238,44.4742198 80.3144238,45.2332198 C81.5774238,45.9912198 81.7534238,47.2222198 80.7564238,48.6202198 C79.7354238,50.0522198 78.6814238,51.4602198 77.6404238,52.8772198 C74.8694238,56.6502198 73.2404238,60.9812198 71.5694238,65.2922198 C71.2174238,66.2002198 71.1274238,67.1512198 70.9844238,68.0942198 C70.7974238,69.3322198 71.5684238,69.9562198 72.7014238,69.3782198 C73.8274238,68.8032198 74.8364238,68.0032198 75.9224238,67.3452198 C78.8094238,65.5952198 80.9294238,63.0442198 83.1074238,60.5442198 C86.5394238,56.6042198 89.9844238,52.6842198 92.7774238,48.2332198 C93.9194238,46.4142198 96.4384238,46.5632198 97.1954238,48.3972198 C97.6724238,49.5522198 97.3814238,50.6662198 96.6334238,51.6562198 C95.5034238,53.1532198 94.4034238,54.6762198 93.2334238,56.1422198 C90.4764238,59.5982198 89.0494238,63.6432198 88.0244238,67.8572198 C87.6294238,69.4802198 88.8234238,70.4702198 90.4124238,69.9732198 C94.0834238,68.8262198 96.7494238,66.2202198 99.5004238,63.7372198 C101.458424,61.9702198 102.974424,59.8132198 104.649424,57.8002198 C106.917424,55.0742198 109.168424,52.3292198 111.291424,49.4902198 C114.153424,45.6642198 116.823424,41.7012198 118.738424,37.2912198 C119.324424,35.9412198 120.269424,35.1882198 121.786424,35.2632198 C123.327424,35.3392198 124.287424,36.7552198 123.782424,38.2132198 C123.743424,38.3262198 123.723424,38.4512198 123.662424,38.5512198 C121.599424,41.9472198 123.241424,43.5812198 126.867424,45.5712198 C127.658424,46.0052198 128.512424,46.3692198 129.269424,46.8682198 C130.547424,47.7102198 130.632424,49.3872198 129.483424,50.4062198 C125.642424,53.8152198 122.843424,58.0302198 120.207424,62.3702198 C119.326424,63.8212198 118.996424,65.4832198 118.500424,67.0732198 C118.247424,67.8862198 118.744424,68.3132198 119.600424,68.3772198 C121.317424,68.5052198 122.794424,67.8252198 124.251424,67.0692198 C127.025424,65.6322198 129.206424,63.4742198 131.350424,61.2572198 C135.513424,56.9532198 138.640424,51.8892198 141.998424,46.9862198 C143.392424,44.9502198 145.022424,43.0702198 146.609424,41.1742198 C147.418424,40.2082198 148.621424,40.1352198 149.627424,40.8252198 C150.656424,41.5302198 150.912424,42.5722198 150.402424,43.7772198 C150.176424,44.3112198 149.775424,44.7002198 149.423424,45.1272198 C144.820424,50.7152198 140.868424,56.7132198 137.916424,63.3442198 C137.425424,64.4462198 137.193424,65.6192198 136.931424,66.7832198 C136.726424,67.6982198 137.220424,68.0822198 138.058424,67.9802198 C140.401424,67.6982198 142.280424,66.4482198 144.063424,65.0102198 C147.594424,62.1602198 150.513424,58.7042198 153.591424,55.4072198 C154.257424,54.6942198 154.509424,53.7302198 155.000424,52.9102198 C156.352424,50.6502198 157.715424,48.3972198 159.065424,46.1372198 C159.948424,44.6582198 159.646424,44.0732198 157.928424,43.9322198 C157.653424,43.9102198 157.367424,43.9332198 157.093424,43.9802198 C155.701424,44.2212198 154.447424,43.4192198 154.255424,42.1502198 C154.017424,40.5872198 154.873424,39.5062198 156.476424,39.3872198 C158.705424,39.2212198 160.935424,39.0442198 163.167424,38.9442198 C164.183424,38.8992198 164.868424,38.4912198 165.444424,37.6662198 C169.512424,31.8282198 173.741424,26.1122198 178.273424,20.6222198 C179.337424,19.3332198 180.191424,17.8722198 181.155424,16.4992198 C181.853424,15.5042198 182.806424,15.1692198 183.981424,15.4782198 C185.527424,15.8852198 186.180424,17.2112198 185.402424,18.6182198 C184.066424,21.0362198 182.282424,23.1522198 180.603424,25.3292198 C178.555424,27.9852198 176.388424,30.5482198 174.318424,33.1872198 C173.509424,34.2182198 172.768424,35.3132198 172.101424,36.4402198 C171.423424,37.5852198 171.874424,38.2092198 173.194424,38.2362198 C176.591424,38.3062198 179.967424,38.0892198 183.333424,37.6432198 C184.741424,37.4562198 185.650424,38.3052198 185.847424,39.8952198 C185.978424,40.9502198 185.082424,42.0772198 183.897424,42.2222198 C182.196424,42.4312198 180.489424,42.6192198 178.779424,42.7232198 C175.514424,42.9222198 172.246424,43.0772198 168.977424,43.2042198 C167.774424,43.2502198 166.987424,43.7352198 166.179424,44.6832198 C162.055424,49.5192198 158.970424,54.9872198 156.212424,60.6582198 C155.525424,62.0722198 154.953424,63.5882198 154.931424,65.2132198 C154.913424,66.5232198 155.499424,67.1502198 156.803424,67.1522198 C158.992424,67.1542198 161.115424,66.7352198 162.956424,65.5102198 C167.259424,62.6462198 171.319424,59.4592198 174.607424,55.4422198 C176.297424,53.3782198 177.762424,51.1142198 179.656424,49.2292198 C185.736424,43.1832198 192.104424,37.5682198 201.147424,36.5452198 C203.925424,36.2302198 206.473424,36.8732198 208.099424,39.3152198 C209.667424,41.6712198 209.384424,44.1792198 207.995424,46.5602198 C207.223424,47.8842198 205.897424,48.2072198 204.604424,47.4942198 C203.395424,46.8282198 203.058424,45.6692198 203.719424,44.4462198 C203.814424,44.2712198 203.933424,44.1072198 204.016424,43.9272198 C204.814424,42.1962198 204.109424,41.1622198 202.180424,41.1872198 C199.012424,41.2292198 196.222424,42.4702198 193.493424,43.8992198 C190.596424,45.4162198 188.233424,47.6192198 185.844424,49.8112198 C182.458424,52.9172198 179.658424,56.4392198 177.649424,60.5802198 C176.978424,61.9642198 176.672424,63.4312198 176.545424,64.9552198 C176.475424,65.7982198 176.810424,66.0972198 177.636424,66.1002198 C178.609424,66.1042198 179.412424,65.6872198 180.206424,65.2342198 C183.643424,63.2772198 186.407424,60.4862198 189.302424,57.8592198 C192.349424,55.0942198 195.382424,52.3152198 198.433424,49.5542198 C199.063424,48.9842198 199.763424,48.5722198 200.686424,48.6092198 C202.451424,48.6782198 203.465424,50.1582198 202.708424,51.7562198 C201.686424,53.9132198 199.921424,55.5342198 198.481424,57.3912198 C197.047424,59.2392198 195.461424,61.0232198 195.214424,63.5252198 C195.101424,64.6662198 195.616424,65.3542198 196.755424,65.3912198 C197.400424,65.4122198 197.997424,65.2552198 198.593424,64.9742198 C201.038424,63.8212198 203.175424,62.2382198 205.145424,60.4102198 C208.925424,56.9022198 212.608424,53.3072198 215.514424,49.0052198 C216.141424,48.0772198 216.650424,47.0902198 217.109424,46.0702198 C217.643424,44.8852198 218.496424,44.4992198 219.730424,44.8252198 C221.105424,45.1882198 221.714424,46.0002198 221.591424,47.3132198 C221.569424,47.5512198 221.526424,47.7882198 221.500424,48.0262198 C221.447424,48.5252198 221.483424,49.0032198 221.977424,49.2842198 C222.469424,49.5642198 222.893424,49.3402198 223.299424,49.0532198 C225.058424,47.8122198 226.790424,46.5292198 228.586424,45.3442198 C231.176424,43.6342198 234.058424,42.4792198 237.092424,42.0572198 C240.411424,41.5962198 243.487424,43.6332198 242.396424,48.5202198 C241.712424,51.5832198 240.225424,54.3312198 238.794424,57.0872198 C237.793424,59.0152198 237.233424,61.0912198 236.611424,63.1442198 C236.194424,64.5172198 236.775424,65.1062198 238.209424,64.9262198 C239.429424,64.7732198 240.487424,64.2202198 241.473424,63.5322198 C244.141424,61.6722198 246.437424,59.4052198 248.660424,57.0432198 C250.336424,55.2632198 251.681424,53.2352198 253.198424,51.3382198 C253.914424,50.4442198 254.812424,50.1772198 255.851424,50.4522198 C257.608424,50.9182198 258.124424,52.5732198 257.003424,54.0982198 C254.446424,57.5782198 251.678424,60.8722198 248.534424,63.8522198 C246.487424,65.7912198 244.337424,67.6172198 241.709424,68.6182198 C239.252424,69.5542198 236.674424,69.9852198 234.055424,68.8312198 C232.708424,68.2372198 232.187424,67.1292198 231.788424,65.9312198 C231.338424,64.5812198 231.450424,63.2212198 231.906424,61.8292198 C233.367424,57.3612198 235.423424,53.1432198 237.243424,48.8262198 C237.475424,48.2762198 237.673424,47.7542198 237.284424,47.2552198 C236.859424,46.7102198 236.293424,46.9502198 235.753424,47.1112198 C231.503424,48.3732198 228.084424,51.0082198 224.886424,53.9082198 C220.714424,57.6912198 216.738424,61.6852198 212.845424,65.7582198 C211.881424,66.7672198 210.825424,67.6882198 209.798424,68.6372198 C209.268424,69.1262198 208.685424,69.5842198 207.976424,69.7432198 C205.809424,70.2302198 204.242424,70.0222198 203.857424,67.3502198 C202.237424,68.2912198 200.725424,69.3592198 198.843424,69.7602198 C194.965424,70.5862198 191.845424,68.9742198 190.492424,65.2482198 C190.126424,64.2422198 189.473424,64.3222198 188.804424,64.7672198 C187.776424,65.4512198 186.797424,66.2112198 185.826424,66.9742198 C184.410424,68.0862198 182.881424,69.0012198 181.289424,69.8392198 C179.545424,70.7562198 177.726424,70.9022198 175.833424,70.6182198 C173.445424,70.2592198 171.879424,68.1642198 171.682424,64.8662198" id="Fill-4"></path>
            <path d="M53.8324238,49.2232198 C51.4744238,49.4102198 49.2704238,48.9042198 47.0464238,48.7122198 C44.8524238,48.5242198 43.7064238,49.6492198 42.6524238,51.3242198 C38.8044238,57.4332198 34.9784238,63.5712198 30.1554238,68.9812198 C27.3634238,72.1132198 24.1254238,74.7142198 19.8984238,75.6582198 C15.3824238,76.6662198 10.9094238,76.8142198 6.97042383,73.8462198 C3.77042383,71.4342198 2.10742383,67.9582198 1.15742383,64.1992198 C-1.02757617,55.5482198 -0.0225761746,47.1812198 3.36042383,38.9372198 C7.74742383,28.2442198 14.8994238,19.7942198 23.8024238,12.6702198 C31.0954238,6.83421979 39.5034238,3.47421979 48.5714238,1.58221979 C52.6014238,0.740219791 56.6524238,-0.0147802089 60.7734238,0.000219791119 C66.4884238,0.0212197911 72.1994238,0.396219791 77.5474238,2.66121979 C84.5244238,5.61721979 89.0044238,13.0372198 88.1844238,20.3032198 C87.6024238,25.4602198 85.3954238,30.0122198 82.3614238,34.1712198 C78.9694238,38.8222198 74.7534238,42.6062198 69.7434238,45.4022198 C66.0184238,47.4802198 61.8584238,48.3752198 57.6604238,48.9912198 C56.3604238,49.1822198 55.0524238,49.3842198 53.8324238,49.2232198 Z M4.91742383,55.2902198 C4.86042383,56.1912198 4.94942383,57.5102198 5.18142383,58.8092198 C5.73342383,61.9092198 6.26442383,65.0272198 8.03142383,67.7372198 C9.71942383,70.3282198 12.1294238,71.4972198 15.2224238,71.4142198 C20.2414238,71.2802198 23.9534238,68.7582198 27.0734238,65.0972198 C31.1874238,60.2702198 34.5264238,54.9072198 37.8224238,49.5172198 C38.8924238,47.7672198 38.5844238,46.4102198 36.7894238,45.4502198 C34.9894238,44.4872198 33.2504238,43.4512198 31.7044238,42.1202198 C29.1764238,39.9432198 26.8544238,37.5912198 25.6764238,34.3662198 C25.1754238,32.9952198 25.4994238,32.2642198 26.8454238,31.5202198 C27.8874238,30.9432198 28.9064238,31.1352198 29.7024238,32.1442198 C30.6174238,33.3042198 31.4464238,34.5312198 32.3654238,35.6882198 C34.3604238,38.2012198 36.7284238,40.2322198 39.8234238,41.2942198 C41.1854238,41.7622198 42.3474238,41.4712198 43.1084238,40.3642198 C45.0544238,37.5322198 47.0364238,34.7222198 48.8974238,31.8342198 C53.8354238,24.1772198 58.7124238,16.4792198 64.6124238,9.50021979 C65.4094238,8.55621979 66.2284238,7.45821979 65.7424238,6.28821979 C65.2164238,5.01921979 63.7544238,4.99721979 62.5124238,4.88221979 C62.4724238,4.87821979 62.4324238,4.88221979 62.3924238,4.88121979 C53.8834238,4.74821979 45.7644238,6.60621979 38.0144238,9.98021979 C25.4554238,15.4482198 16.3064238,24.6102198 9.97742383,36.6412198 C6.98742383,42.3262198 4.85742383,48.3062198 4.91742383,55.2902198 Z M83.3684238,19.3202198 C83.3794238,14.9512198 81.5754238,11.4882198 78.2394238,8.78821979 C76.5894238,7.45221979 75.2774238,7.42321979 73.4134238,8.45421979 C70.4264238,10.1062198 68.2834238,12.6542198 66.2814238,15.2762198 C60.1474238,23.3082198 54.8114238,31.8872198 49.3824238,40.3982198 C49.1294238,40.7952198 48.9594238,41.2522198 48.7974238,41.6982198 C48.4394238,42.6832198 48.8914238,43.4192198 49.7634238,43.7072198 C50.9644238,44.1042198 52.2594238,44.5962198 53.4734238,44.5052198 C57.7644238,44.1822198 62.0984238,43.6662198 65.9944238,41.7492198 C71.9644238,38.8122198 76.5944238,34.2752198 80.0454238,28.6082198 C81.8964238,25.5672198 83.2904238,22.3032198 83.3684238,19.3202198 Z" id="Combined-Shape"></path>
            <path d="M162.772424,102.34422 C162.986424,102.71322 163.388424,102.73122 163.691424,102.90822 C165.781424,104.13222 165.793424,106.96122 163.709424,108.21322 C162.971424,108.65722 162.154424,108.87622 161.317424,108.89722 C159.399424,108.94722 157.479424,108.90322 155.561424,108.94422 C154.970424,108.95722 154.941424,108.67722 154.942424,108.22122 C154.954424,104.46322 154.960424,100.70622 154.937424,96.9482198 C154.934424,96.3892198 155.064424,96.1872198 155.659424,96.2012198 C157.377424,96.2422198 159.099424,96.1642198 160.815424,96.2342198 C163.294424,96.3352198 164.745424,97.7792198 164.524424,99.8132198 C164.398424,100.97122 163.774424,101.79222 162.772424,102.34422 Z M159.162424,107.69122 C160.034424,107.64722 161.036424,107.79722 162.017424,107.50822 C163.070424,107.19822 163.811424,106.61122 163.819424,105.43222 C163.828424,104.22322 163.042424,103.68422 161.984424,103.40622 C160.765424,103.08522 159.523424,103.23822 158.290424,103.22322 C156.387424,103.19922 156.387424,103.21622 156.387424,105.05122 C156.387424,107.69122 156.387424,107.69122 159.162424,107.69122 Z M158.955424,97.4572198 C158.244424,97.4572198 157.646424,97.4722198 157.049424,97.4522198 C156.636424,97.4382198 156.369424,97.5002198 156.380424,98.0162198 C156.405424,99.1712198 156.388424,100.32622 156.387424,101.48122 C156.387424,101.72822 156.393424,101.98422 156.736424,101.96622 C158.358424,101.88122 160.011424,102.23822 161.600424,101.72522 C162.614424,101.39922 163.150424,100.64322 163.104424,99.5462198 C163.060424,98.4792198 162.432424,97.9142198 161.454424,97.6212198 C160.590424,97.3622198 159.712424,97.5042198 158.955424,97.4572198 Z" id="Combined-Shape"></path>
            <path d="M137.762424,102.23722 C138.609424,103.14222 139.382424,103.94522 140.128424,104.77422 C140.466424,105.15122 140.695424,105.12622 140.917424,104.68622 C141.205424,104.11722 141.511424,103.55822 141.791424,102.98722 C141.971424,102.62022 142.054424,102.29022 142.636424,102.58422 C143.195424,102.86622 143.211424,103.12322 142.929424,103.57922 C142.762424,103.84822 142.637424,104.14422 142.490424,104.42622 C141.538424,106.24922 141.509424,106.27922 143.015424,107.74422 C143.581424,108.29522 143.576424,108.58222 142.896424,108.93722 C142.661424,109.06022 142.494424,109.15622 142.293424,108.91122 C142.167424,108.75822 141.989424,108.64422 141.877424,108.48322 C141.118424,107.38222 140.424424,107.24422 139.313424,108.22422 C138.079424,109.31222 136.473424,109.43922 134.897424,108.90522 C133.451424,108.41622 132.533424,107.40922 132.408424,105.85422 C132.278424,104.24222 133.067424,103.05322 134.477424,102.38422 C135.369424,101.96122 135.490424,101.68422 134.888424,100.83722 C133.944424,99.5092198 134.152424,97.8702198 135.175424,96.8872198 C136.222424,95.8812198 138.040424,95.6752198 139.290424,96.4212198 C140.416424,97.0932198 140.929424,98.4382198 140.530424,99.7492198 C140.132424,101.05622 139.029424,101.63922 137.762424,102.23722 Z M136.821424,107.97322 C137.399424,107.96122 138.116424,107.66322 138.772424,107.16622 C139.500424,106.61422 139.908424,106.14622 138.924424,105.37522 C138.149424,104.76722 137.546424,103.94222 136.850424,103.22922 C136.645424,103.02022 136.487424,102.75722 136.060424,102.86422 C134.855424,103.16422 133.701424,104.63522 133.836424,105.79222 C133.982424,107.03022 135.161424,107.97122 136.821424,107.97322 Z M139.347424,98.9552198 C139.366424,97.8922198 138.641424,97.1432198 137.580424,97.1302198 C136.475424,97.1172198 135.711424,97.8732198 135.704424,98.9862198 C135.698424,99.8862198 136.539424,101.25322 137.108424,101.26922 C138.011424,101.29522 139.330424,99.9322198 139.347424,98.9552198 Z" id="Combined-Shape"></path>
            <path d="M204.105424,103.73822 C205.374424,105.46022 206.592424,107.11522 207.851424,108.82322 C206.789424,109.09322 206.058424,108.95522 205.529424,108.02222 C205.118424,107.29822 204.425424,106.72322 204.071424,105.98022 C203.110424,103.96322 201.452424,103.72022 199.513424,103.91322 C198.972424,103.96722 198.848424,104.14322 198.858424,104.63022 C198.882424,105.83022 198.831424,107.03122 198.880424,108.22922 C198.905424,108.83822 198.683424,108.94222 198.129424,108.95322 C197.519424,108.96622 197.415424,108.73522 197.418424,108.19222 C197.439424,104.43222 197.443424,100.67322 197.415424,96.9142198 C197.410424,96.3042198 197.629424,96.1942198 198.173424,96.2042198 C199.892424,96.2362198 201.615424,96.1602198 203.331424,96.2332198 C206.489424,96.3662198 208.319424,98.8712198 207.216424,101.48622 C206.655424,102.81722 205.481424,103.37322 204.105424,103.73822 Z M198.867424,100.17022 C198.867424,100.80922 198.861424,101.44922 198.870424,102.08822 C198.874424,102.34622 198.781424,102.70722 199.223424,102.68522 C200.892424,102.60322 202.589424,102.95922 204.226424,102.45722 C205.529424,102.05822 206.152424,101.10222 206.064424,99.8512198 C205.983424,98.7062198 205.208424,97.8642198 203.902424,97.6552198 C203.120424,97.5302198 202.313424,97.5282198 201.518424,97.5232198 C198.867424,97.5082198 198.867424,97.5182198 198.867424,100.17022 Z" id="Combined-Shape"></path>
            <path d="M59.6844238,95.9752198 C63.3414238,95.9802198 66.1634238,98.8642198 66.1464238,102.57922 C66.1284238,106.28322 63.2764238,109.17822 59.6494238,109.17222 C55.9934238,109.16622 53.1714238,106.28222 53.1894238,102.56922 C53.2074238,98.8642198 56.0584238,95.9702198 59.6844238,95.9752198 Z M54.6724238,102.53022 C54.6494238,105.48922 56.8734238,107.86622 59.6664238,107.86722 C62.5034238,107.86922 64.6714238,105.56722 64.6634238,102.55922 C64.6564238,99.6542198 62.4764238,97.3232198 59.7274238,97.2792198 C56.9004238,97.2342198 54.6954238,99.5242198 54.6724238,102.53022 Z" id="Combined-Shape"></path>
            <path d="M111.989424,102.47822 C111.989424,100.68122 112.014424,98.8832198 111.976424,97.0862198 C111.962424,96.4522198 112.073424,96.1832198 112.800424,96.1972198 C115.315424,96.2442198 117.832424,96.2152198 120.348424,96.2142198 C120.741424,96.2142198 121.118424,96.1232198 121.128424,96.7752198 C121.138424,97.4192198 120.853424,97.4682198 120.341424,97.4632198 C118.304424,97.4422198 116.266424,97.4772198 114.230424,97.4402198 C113.611424,97.4292198 113.379424,97.5882198 113.412424,98.2352198 C113.463424,99.2312198 113.476424,100.23522 113.409424,101.22922 C113.361424,101.93022 113.679424,101.99322 114.242424,101.98422 C115.959424,101.95822 117.677424,101.97122 119.394424,101.97722 C119.803424,101.97922 120.270424,101.82122 120.270424,102.56822 C120.270424,103.25622 119.899424,103.22122 119.434424,103.21822 C117.716424,103.20922 115.998424,103.24422 114.282424,103.19922 C113.606424,103.18222 113.370424,103.37622 113.412424,104.06322 C113.467424,104.97822 113.484424,105.90422 113.408424,106.81722 C113.341424,107.62122 113.691424,107.72122 114.374424,107.70722 C116.371424,107.66722 118.368424,107.70322 120.365424,107.68622 C120.859424,107.68222 121.182424,107.69822 121.170424,108.36022 C121.158424,108.99822 120.802424,108.93422 120.398424,108.93322 C117.841424,108.93022 115.285424,108.90222 112.729424,108.95122 C112.021424,108.96422 111.974424,108.66322 111.980424,108.11022 C112.003424,106.23322 111.989424,104.35522 111.989424,102.47822" id="Fill-10"></path>
            <path d="M98.3094238,102.45922 C98.3094238,100.62222 98.3294238,98.7842198 98.2974238,96.9472198 C98.2874238,96.3872198 98.4264238,96.1942198 99.0194238,96.2012198 C101.574424,96.2332198 104.131424,96.2182198 106.687424,96.2122198 C107.101424,96.2112198 107.436424,96.1652198 107.449424,96.7942198 C107.463424,97.4682198 107.128424,97.4642198 106.642424,97.4612198 C104.645424,97.4452198 102.646424,97.4922198 100.651424,97.4352198 C99.8924238,97.4132198 99.6654238,97.6472198 99.7364238,98.3742198 C99.8524238,99.5512198 99.2474238,101.08922 99.9874238,101.80822 C100.568424,102.37322 102.105424,101.96222 103.217424,101.97322 C104.136424,101.98222 105.055424,101.99722 105.973424,101.96622 C106.452424,101.95022 106.587424,102.12722 106.581424,102.58822 C106.575424,103.03522 106.461424,103.22822 105.974424,103.22222 C104.217424,103.20022 102.457424,103.26022 100.702424,103.19422 C99.8854238,103.16322 99.6554238,103.43922 99.7374238,104.20222 C99.8604238,105.33822 99.2374238,106.86222 99.9914238,107.51322 C100.639424,108.07322 102.118424,107.68022 103.230424,107.69022 C104.428424,107.70222 105.628424,107.71822 106.825424,107.68222 C107.374424,107.66522 107.477424,107.88622 107.484424,108.37922 C107.491424,108.91222 107.221424,108.93822 106.818424,108.93622 C104.222424,108.92722 101.625424,108.91522 99.0294238,108.94422 C98.4534238,108.95122 98.2864238,108.78622 98.2964238,108.21022 C98.3304238,106.29422 98.3094238,104.37622 98.3094238,102.45922" id="Fill-11"></path>
            <path d="M169.589424,102.45922 C169.589424,100.62222 169.609424,98.7842198 169.577424,96.9472198 C169.567424,96.3882198 169.705424,96.1942198 170.299424,96.2012198 C172.854424,96.2332198 175.411424,96.2182198 177.967424,96.2122198 C178.381424,96.2112198 178.716424,96.1652198 178.729424,96.7942198 C178.743424,97.4682198 178.408424,97.4642198 177.922424,97.4612198 C175.925424,97.4452198 173.927424,97.4922198 171.931424,97.4352198 C171.172424,97.4132198 170.945424,97.6462198 171.016424,98.3742198 C171.132424,99.5512198 170.527424,101.08922 171.266424,101.80822 C171.847424,102.37322 173.384424,101.96222 174.497424,101.97322 C175.415424,101.98222 176.335424,101.99722 177.253424,101.96622 C177.731424,101.95022 177.867424,102.12522 177.861424,102.58722 C177.855424,103.03422 177.743424,103.22922 177.255424,103.22322 C175.498424,103.20022 173.738424,103.26022 171.983424,103.19422 C171.167424,103.16322 170.935424,103.43722 171.017424,104.20122 C171.140424,105.33722 170.518424,106.86122 171.271424,107.51222 C171.918424,108.07222 173.398424,107.68022 174.509424,107.69022 C175.708424,107.70222 176.907424,107.71822 178.104424,107.68222 C178.652424,107.66522 178.758424,107.88422 178.764424,108.37922 C178.770424,108.91022 178.502424,108.93822 178.098424,108.93622 C175.502424,108.92722 172.906424,108.91522 170.310424,108.94422 C169.734424,108.95122 169.566424,108.78722 169.576424,108.21122 C169.610424,106.29422 169.589424,104.37622 169.589424,102.45922" id="Fill-12"></path>
            <path d="M183.509424,102.46622 C183.509424,100.62922 183.528424,98.7912198 183.498424,96.9542198 C183.488424,96.4052198 183.607424,96.1932198 184.211424,96.2012198 C186.807424,96.2342198 189.404424,96.2222198 192.000424,96.2082198 C192.430424,96.2062198 192.640424,96.2822198 192.643424,96.7872198 C192.645424,97.3072198 192.498424,97.4732198 191.968424,97.4652198 C189.932424,97.4372198 187.893424,97.4902198 185.858424,97.4362198 C185.110424,97.4152198 184.862424,97.6282198 184.936424,98.3672198 C185.052424,99.5452198 184.448424,101.08222 185.183424,101.80422 C185.758424,102.37022 187.299424,101.96022 188.411424,101.97322 C189.289424,101.98322 190.168424,101.98722 191.046424,101.97022 C191.490424,101.96122 191.796424,101.97422 191.788424,102.58022 C191.780424,103.15022 191.537424,103.22722 191.062424,103.22222 C189.304424,103.20322 187.546424,103.24622 185.790424,103.19922 C185.096424,103.18022 184.873424,103.40522 184.938424,104.07522 C185.053424,105.25222 184.440424,106.78922 185.194424,107.51022 C185.786424,108.07722 187.312424,107.67922 188.423424,107.69022 C189.621424,107.70322 190.820424,107.71822 192.017424,107.68222 C192.557424,107.66622 192.681424,107.86722 192.684424,108.37222 C192.687424,108.89422 192.437424,108.93822 192.025424,108.93722 C189.389424,108.92622 186.753424,108.91422 184.117424,108.94422 C183.522424,108.95122 183.499424,108.66822 183.503424,108.21822 C183.518424,106.30122 183.509424,104.38322 183.509424,102.46622" id="Fill-13"></path>
            <path d="M158.749424,24.9432198 C159.984424,25.0872198 161.021424,25.3902198 161.584424,26.5422198 C162.133424,27.6652198 161.459424,28.4142198 160.803424,29.1762198 C159.776424,30.3702198 158.648424,31.4192198 157.031424,31.7302198 C155.671424,31.9912198 154.341424,31.4472198 153.824424,30.4532198 C153.261424,29.3692198 153.472424,28.3672198 154.649424,27.2632198 C155.835424,26.1492198 157.064424,25.0512198 158.749424,24.9432198" id="Fill-14"></path>
            <path d="M45.0154238,95.9722198 C46.5394238,95.9802198 47.9284238,96.4042198 49.1164238,97.3762198 C49.3944238,97.6042198 50.0284238,97.7392198 49.5294238,98.3452198 C49.1324238,98.8272198 48.8644238,99.0142198 48.2234238,98.5062198 C45.7664238,96.5582198 42.6024238,96.9842198 40.9784238,99.3802198 C39.2714238,101.89822 39.9414238,105.55722 42.3954238,107.12422 C44.1994238,108.27522 46.4414238,108.10622 48.2784238,106.61122 C48.7734238,106.20822 49.0864238,105.96522 49.5874238,106.60422 C50.1604238,107.33522 49.3644238,107.43522 49.1094238,107.65122 C46.9244238,109.50122 43.7474238,109.68922 41.4324238,108.16322 C39.0554238,106.59722 37.9874238,103.44922 38.8444238,100.53922 C39.6554238,97.7862198 42.1094238,95.9702198 45.0154238,95.9722198" id="Fill-15"></path>
            <path d="M84.6294238,102.46422 C84.6294238,100.62622 84.6494238,98.7872198 84.6174238,96.9502198 C84.6074238,96.3932198 84.7404238,96.1932198 85.3374238,96.2012198 C87.8944238,96.2342198 90.4524238,96.2232198 93.0094238,96.2072198 C93.4944238,96.2052198 93.7264238,96.3022198 93.7204238,96.8632198 C93.7134238,97.4202198 93.4724238,97.5242198 92.9944238,97.5202198 C90.9564238,97.5062198 88.9174238,97.5342198 86.8804238,97.5032198 C86.2784238,97.4932198 86.0184238,97.6302198 86.0524238,98.2902198 C86.1044238,99.3262198 86.1064238,100.36922 86.0514238,101.40522 C86.0164238,102.07622 86.2894238,102.19622 86.8854238,102.18422 C88.6034238,102.15022 90.3214238,102.17222 92.0404238,102.17322 C92.4694238,102.17322 92.9014238,102.06222 92.9104238,102.78522 C92.9184238,103.49822 92.5094238,103.41422 92.0664238,103.41322 C90.3084238,103.40922 88.5494238,103.43422 86.7924238,103.39922 C86.2224238,103.38822 86.0354238,103.54422 86.0524238,104.12922 C86.0944238,105.48622 86.0404238,106.84622 86.0784238,108.20422 C86.0934238,108.76722 85.9454238,108.95622 85.3544238,108.95422 C84.7814238,108.95122 84.6044238,108.80622 84.6154238,108.21822 C84.6524238,106.30122 84.6294238,104.38222 84.6294238,102.46422" id="Fill-16"></path>
            <path d="M70.9494238,102.57522 C70.9494238,100.69722 70.9704238,98.8182198 70.9364238,96.9412198 C70.9264238,96.3712198 71.0834238,96.1952198 71.6664238,96.2022198 C74.2234238,96.2322198 76.7814238,96.2242198 79.3384238,96.2072198 C79.8344238,96.2032198 80.0444238,96.3212198 80.0394238,96.8712198 C80.0344238,97.4392198 79.7734238,97.5232198 79.3044238,97.5202198 C77.3074238,97.5072198 75.3084238,97.5462198 73.3114238,97.4982198 C72.5864238,97.4802198 72.3004238,97.6582198 72.3744238,98.4202198 C72.4934238,99.6382198 71.8644238,101.27222 72.6294238,101.96922 C73.2944238,102.57522 74.9014238,102.15122 76.0914238,102.17022 C76.8904238,102.18222 77.6904238,102.18822 78.4894238,102.16622 C78.9494238,102.15422 79.2224238,102.21122 79.2284238,102.79522 C79.2334238,103.38522 78.9554238,103.42222 78.4974238,103.41822 C76.7394238,103.40222 74.9804238,103.44422 73.2234238,103.39522 C72.5374238,103.37622 72.3444238,103.58422 72.3704238,104.25822 C72.4224238,105.57422 72.3584238,106.89522 72.3984238,108.21322 C72.4164238,108.79022 72.2434238,108.95222 71.6664238,108.95322 C71.0834238,108.95522 70.9264238,108.78022 70.9364238,108.20922 C70.9704238,106.33222 70.9494238,104.45322 70.9494238,102.57522" id="Fill-17"></path>
        </g>
    </g>
</svg>